<svg width="134" height="32" viewBox="0 0 134 32" fill="none" xmlns="http://www.w3.org/2000/svg">
<path d="M72.3365 23.9553L72.338 23.9561C73.6475 24.7054 75.1943 25.0749 76.9687 25.0749C78.3415 25.0749 79.5704 24.8675 80.6511 24.4472L80.6525 24.4466C81.7307 24.0194 82.6226 23.418 83.3216 22.6395C84.0278 21.8537 84.5063 20.9338 84.7567 19.884L84.8223 19.6092L84.5415 19.5775L80.7239 19.1478L80.5292 19.1259L80.4614 19.3097C80.2931 19.7662 80.0465 20.1434 79.7231 20.4466C79.3958 20.7534 79.0083 20.9884 78.5574 21.1509C78.106 21.306 77.5962 21.3855 77.0252 21.3855C76.1733 21.3855 75.442 21.2052 74.8231 20.8533C74.2046 20.4941 73.7217 19.9804 73.3736 19.3048C73.0689 18.7068 72.8939 17.997 72.8557 17.1694H84.683H84.933V16.9194V15.664C84.933 14.119 84.7192 12.7753 84.284 11.639C83.8514 10.5021 83.2533 9.55753 82.4857 8.81231C81.7299 8.07129 80.856 7.52418 79.8658 7.17268C78.8883 6.81548 77.8505 6.63763 76.7541 6.63763C75.0582 6.63763 73.5693 7.02787 72.297 7.81719C71.0282 8.59677 70.0411 9.68802 69.3363 11.084L69.3361 11.0845C68.638 12.4747 68.293 14.0827 68.293 15.9015C68.293 17.7497 68.6377 19.3694 69.3363 20.753L69.3366 20.7535C70.0354 22.1297 71.0361 23.1989 72.3365 23.9553ZM80.5053 13.9098H72.8784C72.9409 13.3652 73.098 12.859 73.3488 12.3893C73.6822 11.7715 74.1455 11.2757 74.7417 10.8991L74.7417 10.8991L74.7435 10.8979C75.3312 10.5196 76.0173 10.327 76.8106 10.327C77.5548 10.327 78.194 10.4949 78.7371 10.8226L78.7383 10.8233C79.2936 11.1541 79.725 11.6068 80.0351 12.1856L80.0357 12.1867C80.3099 12.6921 80.4678 13.265 80.5053 13.9098Z" fill="#152639" stroke="#152639" stroke-width="0.5"/>
<path d="M65.3338 1.3233V1.0733H65.0838H60.9951H60.7451V1.3233V24.4857V24.7357H60.9951H65.0838H65.3338V24.4857V1.3233Z" fill="#152639" stroke="#152639" stroke-width="0.5"/>
<path d="M45.6133 23.8954L45.6139 23.8957C46.9025 24.6856 48.4367 25.0749 50.2059 25.0749C51.6893 25.0749 52.9934 24.8054 54.1109 24.2577L54.1122 24.2571C55.2257 23.7035 56.111 22.9361 56.7618 21.9547L56.7623 21.9539C57.4123 20.9658 57.786 19.8351 57.887 18.5678L57.9085 18.298H57.6377H53.7298H53.5234L53.4843 18.5007C53.3697 19.096 53.1605 19.5914 52.8625 19.9939C52.5625 20.3991 52.1912 20.7081 51.7466 20.9239C51.3106 21.1317 50.81 21.2385 50.2398 21.2385C49.4365 21.2385 48.7473 21.0261 48.1616 20.6076C47.5804 20.1794 47.121 19.5676 46.7892 18.7589C46.458 17.9441 46.2882 16.9599 46.2882 15.7997C46.2882 14.6552 46.4579 13.6868 46.7884 12.8878C47.1273 12.0868 47.5934 11.4865 48.1812 11.0731L48.1812 11.0732L48.1828 11.072C48.7696 10.6523 49.452 10.4401 50.2398 10.4401C51.1759 10.4401 51.8957 10.7068 52.427 11.2184L52.4269 11.2184L52.4293 11.2207C52.9837 11.7407 53.3354 12.3897 53.4842 13.177L53.5226 13.3806H53.7298H57.6377H57.9064L57.8871 13.1126C57.7939 11.8213 57.4121 10.6842 56.7367 9.70886C56.0628 8.72819 55.1582 7.97258 54.029 7.44216C52.9059 6.90348 51.622 6.63763 50.1833 6.63763C48.4507 6.63763 46.9357 7.02742 45.648 7.81666C44.3712 8.59626 43.3836 9.68789 42.686 11.0848C41.9882 12.4745 41.6431 14.071 41.6431 15.8676C41.6431 17.6561 41.9805 19.2481 42.6626 20.6374L42.6633 20.6389C43.3535 22.0211 44.3374 23.1086 45.6133 23.8954Z" fill="#152639" stroke="#152639" stroke-width="0.5"/>
<path d="M24.5395 30.499L24.4748 30.7165L24.6851 30.8019C24.986 30.9241 25.3772 31.0257 25.8519 31.1101C26.3435 31.2038 26.8746 31.25 27.4446 31.25C28.5402 31.25 29.4959 31.0686 30.3039 30.696C31.1149 30.3331 31.8011 29.8039 32.36 29.1103C32.9151 28.4291 33.3572 27.6152 33.689 26.6726C33.6891 26.6725 33.6891 26.6723 33.6892 26.6722L40.635 7.19781L40.7541 6.86383H40.3995H36.0511H35.8661L35.812 7.04076L31.9514 19.6727L28.1017 7.04095L28.0477 6.86383H27.8625H23.5254H23.1714L23.2898 7.19742L29.5505 24.8454L29.2326 25.6977C29.2325 25.6979 29.2324 25.6981 29.2323 25.6983C28.9922 26.332 28.7088 26.7514 28.3987 26.9907L28.3987 26.9907L28.3942 26.9943C28.0849 27.2447 27.7288 27.3731 27.3163 27.3797C26.8812 27.3868 26.376 27.3094 25.7978 27.1409L25.5591 27.0713L25.4882 27.3096L24.5395 30.499Z" fill="#152639" stroke="#152639" stroke-width="0.5"/>
<path d="M21.0914 9.38829H21.3772L21.3391 9.10501C21.1623 7.78881 20.7848 6.61207 20.2029 5.57854C19.6307 4.54129 18.8986 3.66408 18.0066 2.94942C17.1161 2.22839 16.1026 1.68271 14.9683 1.31184L14.8906 1.54946L14.9683 1.31184C13.8339 0.940908 12.6101 0.756592 11.2989 0.756592C9.24034 0.756592 7.3886 1.23783 5.75042 2.20503C4.11058 3.17321 2.81804 4.57029 1.87213 6.38757C0.92331 8.20291 0.45459 10.3784 0.45459 12.9044C0.45459 15.423 0.919547 17.598 1.86039 19.4204C2.7988 21.2382 4.08775 22.6355 5.72783 23.6038C7.36629 24.5712 9.22565 25.0523 11.2989 25.0523C12.7016 25.0523 13.9845 24.845 15.1448 24.4267L15.1462 24.4262C16.3019 24.0019 17.3151 23.4141 18.183 22.6614L18.184 22.6605C19.0491 21.9025 19.7493 21.0274 20.2833 20.0356C20.8247 19.0442 21.1765 17.9829 21.3388 16.8532L21.3796 16.5691L21.0927 16.5676L16.8685 16.545L16.6601 16.5439L16.6215 16.7486C16.4989 17.3989 16.2763 17.9713 15.9565 18.4695L15.9552 18.4716C15.6401 18.9736 15.2509 19.3952 14.7872 19.7381L14.7857 19.7392C14.3283 20.0827 13.8088 20.3451 13.2251 20.5256C12.6486 20.6987 12.0258 20.7861 11.3554 20.7861C10.1486 20.7861 9.08528 20.4921 8.15759 19.9091C7.24062 19.3206 6.50964 18.4485 5.96935 17.2792C5.43859 16.1066 5.16748 14.6515 5.16748 12.9044C5.16748 11.1878 5.43852 9.7513 5.96948 8.58599L5.96972 8.58545C6.50267 7.40848 7.2339 6.52886 8.1589 5.93292L8.16004 5.93217C9.08733 5.32755 10.1535 5.02274 11.3667 5.02274C12.0512 5.02274 12.684 5.11749 13.2668 5.3048L13.2667 5.30482L13.2703 5.30589C13.86 5.48592 14.3818 5.75489 14.8382 6.11193C15.295 6.46928 15.6776 6.9056 15.9861 7.42287L15.9869 7.42419C16.2927 7.92979 16.505 8.51422 16.6209 9.18107L16.6568 9.38829H16.8672H21.0914Z" fill="#152639" stroke="#152639" stroke-width="0.5"/>
<path fill-rule="evenodd" clip-rule="evenodd" d="M108.989 24.4856V7.11383H113.801V24.4856H108.989ZM111.406 4.8745C110.691 4.8745 110.077 4.63699 109.565 4.16198C109.061 3.67944 108.808 3.10264 108.808 2.43159C108.808 1.76809 109.061 1.19883 109.565 0.723825C110.077 0.241275 110.691 0 111.406 0C112.121 0 112.731 0.241275 113.236 0.723825C113.748 1.19883 114.004 1.76809 114.004 2.43159C114.004 3.10264 113.748 3.67944 113.236 4.16198C112.731 4.63699 112.121 4.8745 111.406 4.8745ZM124.048 24.7683C122.73 24.7683 121.536 24.429 120.467 23.7505C119.406 23.0643 118.562 22.0578 117.937 20.7308C117.32 19.3962 117.011 17.7601 117.011 15.8223C117.011 13.8318 117.331 12.1768 117.971 10.8574C118.611 9.53034 119.462 8.53886 120.524 7.88289C121.593 7.21939 122.764 6.88764 124.036 6.88764C125.008 6.88764 125.817 7.05351 126.465 7.38526C127.12 7.70948 127.647 8.11663 128.046 8.60672C128.453 9.08926 128.761 9.56427 128.972 10.0317H129.119V1.32324H133.919V24.4856H129.175V21.7034H128.972C128.746 22.1859 128.426 22.6647 128.012 23.1397C127.605 23.6072 127.075 23.9955 126.42 24.3046C125.772 24.6138 124.981 24.7683 124.048 24.7683ZM125.572 20.9343C126.348 20.9343 127.003 20.7232 127.538 20.301C128.08 19.8712 128.494 19.2718 128.78 18.5027C129.074 17.7337 129.221 16.8327 129.221 15.7997C129.221 14.7668 129.078 13.8695 128.791 13.108C128.505 12.3465 128.091 11.7584 127.549 11.3437C127.007 10.929 126.348 10.7216 125.572 10.7216C124.782 10.7216 124.115 10.9365 123.573 11.3663C123.031 11.7961 122.621 12.3917 122.342 13.1532C122.064 13.9148 121.924 14.7969 121.924 15.7997C121.924 16.81 122.064 17.7035 122.342 18.4801C122.628 19.2492 123.039 19.8524 123.573 20.2897C124.115 20.7194 124.782 20.9343 125.572 20.9343ZM88.0518 1.32324V24.4856H97.9345C99.6664 24.4856 101.123 24.2066 102.306 23.6487C103.488 23.0907 104.38 22.333 104.982 21.3754C105.592 20.4103 105.897 19.3133 105.897 18.0843C105.897 16.9458 105.656 15.9656 105.174 15.1437C104.692 14.3144 104.064 13.6697 103.288 13.2098C102.52 12.7498 101.696 12.501 100.815 12.4633V12.2371C101.62 12.0562 102.336 11.7508 102.961 11.3211C103.593 10.8837 104.09 10.3258 104.452 9.64721C104.813 8.96109 104.994 8.16564 104.994 7.26086C104.994 6.09972 104.708 5.07431 104.135 4.18461C103.563 3.28737 102.708 2.58616 101.571 2.081C100.434 1.57583 99.0151 1.32324 97.3133 1.32324H88.0518ZM96.9293 20.4819H92.9423V14.3294H97.0423C97.8254 14.3294 98.4993 14.4689 99.064 14.7479C99.6363 15.0269 100.077 15.4114 100.385 15.9015C100.694 16.3916 100.849 16.9571 100.849 17.598C100.849 18.4726 100.536 19.1738 99.9111 19.7016C99.2861 20.2218 98.2922 20.4819 96.9293 20.4819ZM96.5679 11.0157H92.9423V5.28165H96.6582C97.7425 5.28165 98.5783 5.538 99.1656 6.05071C99.7605 6.56342 100.058 7.23824 100.058 8.07516C100.058 8.68588 99.9036 9.2099 99.5948 9.64721C99.2937 10.0845 98.8795 10.4238 98.3524 10.6651C97.8329 10.8988 97.238 11.0157 96.5679 11.0157Z" fill="url(#paint0_linear_251_238)"/>
<defs>
<linearGradient id="paint0_linear_251_238" x1="88.0152" y1="23.4465" x2="188.046" y2="23.4465" gradientUnits="userSpaceOnUse">
<stop stop-color="#1E70EB"/>
<stop offset="1" stop-color="#57F1D5"/>
</linearGradient>
</defs>
</svg>
